<?xml version="1.0" standalone="no"?>
<!DOCTYPE svg PUBLIC "-//W3C//DTD SVG 20010904//EN"
 "http://www.w3.org/TR/2001/REC-SVG-20010904/DTD/svg10.dtd">
<svg version="1.0" xmlns="http://www.w3.org/2000/svg"
 width="48.000000pt" height="48.000000pt" viewBox="0 0 48.000000 48.000000"
 preserveAspectRatio="xMidYMid meet">
<metadata>
Created by potrace 1.16, written by Peter Selinger 2001-2019
</metadata>
<g transform="translate(0.000000,48.000000) scale(0.100000,-0.100000)"
fill="#000000" stroke="none">
<path d="M72 408 c-17 -17 -17 -319 0 -336 17 -17 249 -17 266 0 7 7 12 22 12
35 0 27 -30 32 -50 8 -16 -19 -170 -21 -188 -3 -17 17 -17 239 0 256 18 18
172 16 188 -3 20 -24 50 -19 50 8 0 13 -5 28 -12 35 -17 17 -249 17 -266 0z"/>
<path d="M317 313 c-4 -3 0 -17 8 -30 l15 -23 -95 0 c-88 0 -95 -1 -95 -20 0
-19 7 -20 97 -20 75 0 94 -3 85 -12 -18 -18 -15 -48 6 -48 22 0 82 60 82 81 0
8 -15 29 -33 47 -32 31 -56 40 -70 25z"/>
</g>
</svg>
