<?xml version="1.0" standalone="no"?>
<!DOCTYPE svg PUBLIC "-//W3C//DTD SVG 20010904//EN"
 "http://www.w3.org/TR/2001/REC-SVG-20010904/DTD/svg10.dtd">
<svg version="1.0" xmlns="http://www.w3.org/2000/svg"
 width="205.000000pt" height="250.000000pt" viewBox="0 0 205.000000 250.000000"
 preserveAspectRatio="xMidYMid meet">
<metadata>
Created by potrace 1.16, written by Peter Selinger 2001-2019
</metadata>
<g transform="translate(0.000000,250.000000) scale(0.100000,-0.100000)"
fill="#000000" stroke="none">
<path d="M493 2397 c-47 -18 -121 -91 -144 -142 -30 -68 -29 -180 3 -242 32
-64 65 -86 138 -91 161 -12 273 104 273 280 0 96 -28 160 -83 189 -40 22 -136
25 -187 6z"/>
<path d="M930 2267 c-28 -9 -41 -24 -63 -67 -37 -72 -33 -128 12 -174 30 -29
36 -31 105 -31 66 0 78 3 101 25 39 37 57 77 57 130 0 59 -22 94 -73 114 -46
19 -90 20 -139 3z"/>
<path d="M1265 2183 c-54 -13 -125 -100 -125 -153 0 -89 131 -149 226 -104 96
46 91 195 -8 243 -44 21 -56 23 -93 14z"/>
<path d="M1488 1995 c-38 -21 -68 -75 -68 -125 0 -106 157 -149 245 -66 40 38
46 81 20 142 -24 58 -131 84 -197 49z"/>
<path d="M730 1933 c-66 -7 -185 -35 -225 -54 -177 -83 -207 -253 -83 -464 79
-133 64 -201 -96 -425 -171 -239 -229 -381 -230 -565 -1 -101 1 -114 26 -160
33 -62 80 -108 138 -134 40 -18 66 -21 216 -21 192 0 216 5 326 70 94 56 343
305 440 440 141 197 242 389 312 592 84 247 69 417 -46 529 -55 54 -201 123
-322 154 -129 33 -339 50 -456 38z"/>
<path d="M1734 1729 c-68 -33 -86 -64 -71 -120 11 -41 112 -99 174 -99 71 0
138 67 129 129 -14 91 -135 139 -232 90z"/>
</g>
</svg>
